<?xml version="1.0" encoding="utf-8"?>
<!-- Generator: Adobe Illustrator 26.3.1, SVG Export Plug-In . SVG Version: 6.00 Build 0)  -->
<svg version="1.1" id="Calque_1" xmlns="http://www.w3.org/2000/svg" xmlns:xlink="http://www.w3.org/1999/xlink" x="0px" y="0px"
	 viewBox="0 0 2000 2000" style="enable-background:new 0 0 2000 2000;" xml:space="preserve">
<style type="text/css">
	.st0{fill:#FFFFFF;}
</style>
<g>
	<g>
		<path class="st0" d="M426.69,911.02h21.22v151.24h-21.22V911.02z M436.99,911.02h86.85v20.18h-86.85V911.02z M436.99,977.06h75.41
			v20.18h-75.41V977.06z M436.99,1042.07h86.85v20.18h-86.85V1042.07z"/>
		<path class="st0" d="M551.93,954.29h21.22v107.97h-21.22V954.29z M616.41,996.83c0-7.63-1.87-13.52-5.62-17.68
			c-3.74-4.16-9.05-6.24-15.91-6.24c-6.93,0-12.29,1.84-16.07,5.51c-3.78,3.68-5.67,8.84-5.67,15.5l-2.18-20.8
			c3.33-6.52,7.68-11.55,13.05-15.08c5.37-3.54,11.32-5.3,17.84-5.3c7.56,0,14.01,1.72,19.35,5.15c5.34,3.43,9.41,8.44,12.22,15.03
			c2.81,6.59,4.21,14.53,4.21,23.82v65.53h-21.22V996.83z M680.9,996.83c0-7.63-1.98-13.52-5.93-17.68
			c-3.95-4.16-9.5-6.24-16.64-6.24c-6.59,0-11.69,2.01-15.29,6.03c-3.61,4.02-5.41,9.71-5.41,17.06l-4.26-20.8
			c3.4-7.14,7.89-12.67,13.47-16.59c5.58-3.92,11.74-5.88,18.46-5.88c7.77,0,14.41,1.72,19.92,5.15c5.51,3.43,9.71,8.44,12.59,15.03
			c2.88,6.59,4.32,14.53,4.32,23.82v65.53H680.9V996.83z"/>
		<path class="st0" d="M734.37,954.29h21.22v151.86h-21.22V954.29z M765.15,1058.98c-4.99-3.22-8.67-7.78-11.03-13.68l1.46-22.57
			c0,4.65,0.83,8.6,2.5,11.86c1.66,3.26,4.07,5.76,7.23,7.49c3.15,1.73,6.99,2.6,11.49,2.6c7,0,12.43-2.13,16.28-6.4
			c3.85-4.27,5.77-10.28,5.77-18.05v-23.4c0-7.91-1.92-14.04-5.77-18.41c-3.85-4.37-9.27-6.55-16.28-6.55
			c-4.51,0-8.34,0.83-11.49,2.5c-3.16,1.66-5.56,4.11-7.23,7.33c-1.66,3.22-2.5,7.09-2.5,11.6l-2.18-20.8
			c3.26-6.31,7.52-11.18,12.79-14.61c5.27-3.43,11.13-5.15,17.58-5.15c7.63,0,14.16,1.72,19.61,5.15
			c5.44,3.43,9.58,8.44,12.43,15.03c2.84,6.59,4.26,14.53,4.26,23.82v23.51c0,9.15-1.46,16.99-4.37,23.51s-7.18,11.49-12.79,14.93
			c-5.62,3.43-12.34,5.15-20.18,5.15C776,1063.81,770.15,1062.2,765.15,1058.98z"/>
		<path class="st0" d="M871.46,1034.38c0,2.64,0.57,4.66,1.72,6.08c1.14,1.42,2.76,2.13,4.84,2.13h9.99v20.18h-12.48
			c-8.04,0-14.27-2.5-18.67-7.49c-4.4-4.99-6.6-12.03-6.6-21.12V911.02h21.22V1034.38z"/>
		<path class="st0" d="M929.29,1058.3c-6.66-3.67-11.74-9.03-15.24-16.07c-3.5-7.04-5.25-15.51-5.25-25.43v-17.58
			c0-9.78,1.75-18.15,5.25-25.12c3.5-6.97,8.58-12.27,15.24-15.91c6.66-3.64,14.67-5.46,24.03-5.46c9.36,0,17.37,1.82,24.03,5.46
			c6.66,3.64,11.74,8.95,15.24,15.91c3.5,6.97,5.25,15.34,5.25,25.12v17.89c0,9.85-1.75,18.25-5.25,25.22
			c-3.5,6.97-8.58,12.29-15.24,15.96c-6.66,3.68-14.67,5.51-24.03,5.51C943.95,1063.81,935.94,1061.98,929.29,1058.3z
			 M970.53,1036.66c4.06-4.64,6.08-11.16,6.08-19.55v-17.89c0-8.39-2.03-14.87-6.08-19.45s-9.79-6.87-17.21-6.87
			s-13.16,2.29-17.21,6.87s-6.08,11.06-6.08,19.45v17.89c0,8.39,2.03,14.91,6.08,19.55c4.06,4.65,9.79,6.97,17.21,6.97
			S966.47,1041.31,970.53,1036.66z"/>
		<path class="st0" d="M1028,911.02h21.22v21.22H1028V911.02z M1028,954.29h21.22v107.97H1028V954.29z"/>
		<path class="st0" d="M1226.45,929.32l-65.84,112.75h67.92v20.18h-94.03v-18.31l66.36-112.75h-64.49v-20.18h90.08V929.32z"/>
		<path class="st0" d="M1273.15,1058.2c-7.07-3.74-12.47-9.24-16.17-16.49c-3.71-7.24-5.57-16-5.57-26.26v-12.17
			c0-10.68,1.79-19.8,5.36-27.36c3.57-7.56,8.75-13.31,15.55-17.27c6.79-3.95,14.98-5.93,24.55-5.93c9.01,0,16.71,2.25,23.09,6.76
			c6.38,4.51,11.25,11.03,14.61,19.55c3.36,8.53,5.04,18.76,5.04,30.68v7.07h-72.81v-17.06h52.63c-0.62-8.81-2.9-15.65-6.81-20.54
			c-3.92-4.89-9.17-7.33-15.76-7.33c-8.04,0-14.27,2.64-18.67,7.91c-4.4,5.27-6.6,12.73-6.6,22.36v13.73
			c0,8.95,2.36,15.81,7.07,20.6c4.71,4.78,11.41,7.18,20.07,7.18c4.3,0,8.56-0.87,12.79-2.6c4.23-1.73,8.01-4.16,11.34-7.28
			l13.94,13.94c-5.34,5.13-11.34,9.1-18,11.91c-6.66,2.81-13.35,4.21-20.07,4.21C1288.76,1063.81,1280.23,1061.94,1273.15,1058.2z"
			/>
		<path class="st0" d="M1368.74,954.29h21.22v107.97h-21.22V954.29z M1434.27,996.83c0-7.63-1.98-13.52-5.93-17.68
			c-3.95-4.16-9.5-6.24-16.64-6.24c-6.93,0-12.29,1.84-16.07,5.51c-3.78,3.68-5.67,8.84-5.67,15.5l-2.18-20.8
			c3.33-6.52,7.68-11.55,13.05-15.08c5.37-3.54,11.32-5.3,17.84-5.3c11.72,0,20.79,3.83,27.2,11.49c6.41,7.66,9.62,18.5,9.62,32.5
			v65.53h-21.22V996.83z"/>
	</g>
</g>
</svg>
