<?xml version="1.0" encoding="utf-8"?>
<!-- Generator: Adobe Illustrator 26.3.1, SVG Export Plug-In . SVG Version: 6.00 Build 0)  -->
<svg version="1.1" id="Calque_1" xmlns="http://www.w3.org/2000/svg" xmlns:xlink="http://www.w3.org/1999/xlink" x="0px" y="0px"
	 viewBox="0 0 2000 2000" style="enable-background:new 0 0 2000 2000;" xml:space="preserve">
<style type="text/css">
	.st0{fill:#FFFFFF;}
	.st1{fill:#FFFFFF;stroke:#FFFFFF;stroke-width:11;stroke-miterlimit:10;}
</style>
<g>
	<g>
		<path class="st0" d="M356.5,1077.58l97.87-140.85v-1.22h-88.72v-38.41h149.09v26.83L419,1062.94v1.22h97.26v38.41H356.5V1077.58z"
			/>
	</g>
	<polygon class="st0" points="319.31,1064.47 319.31,1015.69 369.73,1015.69 389.92,977.88 319.31,977.88 319.31,935.2 
		399.49,935.2 399.49,897.09 272.66,897.09 272.66,1102.58 323.32,1102.58 343.68,1064.47 	"/>
	<rect x="318.97" y="933.34" class="st0" width="138.57" height="3.51"/>
</g>
<path class="st1" d="M523.11,1193.75h-257.5c-24.02,0-43.49-19.47-43.49-43.49V849.74c0-24.02,19.47-43.49,43.49-43.49h257.5
	c24.02,0,43.49,19.47,43.49,43.49v300.53C566.6,1174.28,547.13,1193.75,523.11,1193.75z"/>
</svg>
